<svg xmlns="http://www.w3.org/2000/svg" viewBox="0 0 750 500"><g id="freepik--background-simple--inject-156"><path d="M735.73,201C739,116.6,681.68,42.39,600.19,26c-48.72-9.78-108.5-17.37-160.27-11-109.76,13.4-44.78,17.86-34.24,18.76s52.68,11.61-.88,15.18S299.43,27.47,227.43,20.33,66.74,23.9,35.13,94.47,4.4,318.67,24.6,381.2,62.35,333,75.52,352.61s66.74,100.05,203.72,119.7S644.51,456.23,677,427.65s17.56-10.72,23.71,3.57,27.22-26.8,30.73-115.23C733,278.13,734,245.25,735.73,201Z" style="fill:#92E3A9"></path><path d="M735.73,201C739,116.6,681.68,42.39,600.19,26c-48.72-9.78-108.5-17.37-160.27-11-109.76,13.4-44.78,17.86-34.24,18.76s52.68,11.61-.88,15.18S299.43,27.47,227.43,20.33,66.74,23.9,35.13,94.47,4.4,318.67,24.6,381.2,62.35,333,75.52,352.61s66.74,100.05,203.72,119.7S644.51,456.23,677,427.65s17.56-10.72,23.71,3.57,27.22-26.8,30.73-115.23C733,278.13,734,245.25,735.73,201Z" style="fill:#fff;opacity:0.7000000000000001"></path></g><g id="freepik--Floor--inject-156"><line x1="26.63" y1="454.42" x2="731.4" y2="454.42" style="fill:none;stroke:#263238;stroke-linecap:round;stroke-linejoin:round"></line></g><g id="freepik--Graphics--inject-156"><rect x="702.11" y="211.48" width="14.95" height="14.95" transform="translate(53.01 565.89) rotate(-45)" style="fill:none;stroke:#9c9c9c;stroke-linecap:round;stroke-linejoin:round"></rect><rect x="49.14" y="79.34" width="14.95" height="14.95" transform="translate(-44.8 65.46) rotate(-45)" style="fill:none;stroke:#9c9c9c;stroke-linecap:round;stroke-linejoin:round"></rect><rect x="437.43" y="364.71" width="11.46" height="11.46" transform="translate(-132.14 421.86) rotate(-45)" style="fill:none;stroke:#9c9c9c;stroke-linecap:round;stroke-linejoin:round"></rect><rect x="443.31" y="40.45" width="11.46" height="11.46" transform="translate(98.87 331.05) rotate(-45)" style="fill:none;stroke:#9c9c9c;stroke-linecap:round;stroke-linejoin:round"></rect><rect x="25.32" y="263.51" width="11.46" height="11.46" transform="translate(-181.29 100.81) rotate(-45)" style="fill:none;stroke:#9c9c9c;stroke-linecap:round;stroke-linejoin:round"></rect><rect x="33.14" y="65.15" width="11.46" height="11.46" transform="translate(-38.73 48.25) rotate(-45)" style="fill:none;stroke:#9c9c9c;stroke-linecap:round;stroke-linejoin:round"></rect><rect x="322.41" y="427.52" width="11.46" height="11.46" transform="translate(-210.24 358.93) rotate(-45)" style="fill:none;stroke:#9c9c9c;stroke-linecap:round;stroke-linejoin:round"></rect><rect x="713.56" y="197.29" width="11.46" height="11.46" transform="translate(67.11 568.08) rotate(-45)" style="fill:none;stroke:#9c9c9c;stroke-linecap:round;stroke-linejoin:round"></rect><rect x="714.49" y="379.44" width="11.46" height="11.46" transform="translate(-61.41 622.09) rotate(-45)" style="fill:none;stroke:#9c9c9c;stroke-linecap:round;stroke-linejoin:round"></rect><line x1="716.38" y1="68.45" x2="716.38" y2="85.02" style="fill:none;stroke:#9c9c9c;stroke-linecap:round;stroke-linejoin:round"></line><line x1="708.1" y1="76.74" x2="724.67" y2="76.74" style="fill:none;stroke:#9c9c9c;stroke-linecap:round;stroke-linejoin:round"></line><line x1="55.42" y1="117.74" x2="55.42" y2="134.31" style="fill:none;stroke:#9c9c9c;stroke-linecap:round;stroke-linejoin:round"></line><line x1="47.13" y1="126.02" x2="63.7" y2="126.02" style="fill:none;stroke:#9c9c9c;stroke-linecap:round;stroke-linejoin:round"></line><line x1="710.76" y1="313.15" x2="710.76" y2="338.92" style="fill:none;stroke:#9c9c9c;stroke-linecap:round;stroke-linejoin:round"></line><line x1="697.87" y1="326.03" x2="723.65" y2="326.03" style="fill:none;stroke:#9c9c9c;stroke-linecap:round;stroke-linejoin:round"></line><line x1="427.98" y1="304.74" x2="446.21" y2="322.96" style="fill:none;stroke:#9c9c9c;stroke-linecap:round;stroke-linejoin:round"></line><line x1="427.98" y1="322.96" x2="446.21" y2="304.74" style="fill:none;stroke:#9c9c9c;stroke-linecap:round;stroke-linejoin:round"></line><line x1="24.04" y1="413.9" x2="37.14" y2="426.99" style="fill:none;stroke:#9c9c9c;stroke-linecap:round;stroke-linejoin:round"></line><line x1="24.04" y1="426.99" x2="37.14" y2="413.9" style="fill:none;stroke:#9c9c9c;stroke-linecap:round;stroke-linejoin:round"></line><line x1="338.01" y1="25.89" x2="351.11" y2="38.99" style="fill:none;stroke:#9c9c9c;stroke-linecap:round;stroke-linejoin:round"></line><line x1="338.01" y1="38.99" x2="351.11" y2="25.89" style="fill:none;stroke:#9c9c9c;stroke-linecap:round;stroke-linejoin:round"></line></g><g id="freepik--Arrow--inject-156"><polygon points="442.21 76.81 404.52 48.13 404.52 63.22 348.76 63.22 348.76 90.4 404.52 90.4 404.52 105.5 442.21 76.81" style="fill:none;stroke:#263238;stroke-linecap:round;stroke-linejoin:round"></polygon></g><g id="freepik--screen-2--inject-156"><rect x="473.33" y="36.31" width="214.83" height="418.11" rx="11.27" style="fill:#fff;stroke:#263238;stroke-linecap:round;stroke-linejoin:round"></rect><path d="M473.33,418.9v24.24a11.27,11.27,0,0,0,11.27,11.28H676.89a11.28,11.28,0,0,0,11.27-11.28V418.9Z" style="fill:#92E3A9;stroke:#263238;stroke-miterlimit:10"></path><rect x="560.21" y="161.45" width="44.63" height="44.63" rx="6.1" style="fill:#263238;stroke:#263238;stroke-miterlimit:10"></rect><polygon points="594.51 184.63 572.83 172.11 572.83 197.15 594.51 184.63" style="fill:#92E3A9;stroke:#263238;stroke-miterlimit:10"></polygon><path d="M658.68,78.13H617.11a16,16,0,0,1-16-16h0a16,16,0,0,1,16-16h41.57a16,16,0,0,1,16,16h0A16,16,0,0,1,658.68,78.13Z" style="fill:#92E3A9;stroke:#263238;stroke-miterlimit:10"></path><circle cx="616.63" cy="62.09" r="14.26" style="fill:#fff;stroke:#263238;stroke-linecap:round;stroke-linejoin:round"></circle><line x1="488.52" y1="64.99" x2="516.36" y2="64.99" style="fill:none;stroke:#263238;stroke-linecap:round;stroke-linejoin:round"></line><line x1="488.52" y1="72.28" x2="516.36" y2="72.28" style="fill:none;stroke:#263238;stroke-linecap:round;stroke-linejoin:round"></line><line x1="488.52" y1="79.57" x2="516.36" y2="79.57" style="fill:none;stroke:#263238;stroke-linecap:round;stroke-linejoin:round"></line><rect x="492.2" y="285.68" width="151.58" height="115.98" style="fill:#92E3A9;stroke:#263238;stroke-miterlimit:10"></rect><polygon points="643.78 331.75 620.63 309.54 578.74 357.26 553.93 338.7 492.2 401.66 643.78 401.66 643.78 331.75" style="fill:#263238;stroke:#263238;stroke-miterlimit:10"></polygon><circle cx="526" cy="318.82" r="15.91" style="fill:#263238;stroke:#263238;stroke-miterlimit:10"></circle><line x1="487.15" y1="91.69" x2="672.83" y2="91.69" style="fill:none;stroke:#263238;stroke-linecap:round;stroke-linejoin:round"></line><circle cx="665.6" cy="298.82" r="12.9" transform="translate(-50.67 159.99) rotate(-13.21)" style="fill:#263238;stroke:#263238;stroke-linecap:round;stroke-linejoin:round"></circle><path d="M670.57,294.46a5,5,0,1,0-5,5A5,5,0,0,0,670.57,294.46Z" style="fill:#fff;stroke:#263238;stroke-linecap:round;stroke-linejoin:round"></path><path d="M665.6,300.38a8.21,8.21,0,0,0-8.22,8.21c0,.06,0,.12,0,.19a12.92,12.92,0,0,0,16.41,0c0-.07,0-.13,0-.19A8.21,8.21,0,0,0,665.6,300.38Z" style="fill:#fff;stroke:#263238;stroke-linecap:round;stroke-linejoin:round"></path><circle cx="665.6" cy="341.21" r="12.9" transform="translate(-60.36 161.11) rotate(-13.21)" style="fill:#263238;stroke:#263238;stroke-linecap:round;stroke-linejoin:round"></circle><path d="M670.57,336.85a5,5,0,1,0-5,5A5,5,0,0,0,670.57,336.85Z" style="fill:#fff;stroke:#263238;stroke-linecap:round;stroke-linejoin:round"></path><path d="M665.6,342.77a8.22,8.22,0,0,0-8.22,8.21c0,.06,0,.12,0,.19a12.92,12.92,0,0,0,16.41,0c0-.07,0-.13,0-.19A8.22,8.22,0,0,0,665.6,342.77Z" style="fill:#fff;stroke:#263238;stroke-linecap:round;stroke-linejoin:round"></path><circle cx="665.6" cy="383.6" r="12.9" transform="translate(-70.04 162.23) rotate(-13.21)" style="fill:#263238;stroke:#263238;stroke-linecap:round;stroke-linejoin:round"></circle><path d="M670.57,379.24a5,5,0,1,0-5,5A5,5,0,0,0,670.57,379.24Z" style="fill:#fff;stroke:#263238;stroke-linecap:round;stroke-linejoin:round"></path><path d="M665.6,385.16a8.22,8.22,0,0,0-8.22,8.21c0,.06,0,.13,0,.19a12.92,12.92,0,0,0,16.41,0c0-.06,0-.13,0-.19A8.22,8.22,0,0,0,665.6,385.16Z" style="fill:#fff;stroke:#263238;stroke-linecap:round;stroke-linejoin:round"></path><rect x="489.57" y="106.74" width="183.28" height="35.84" rx="17.92" style="fill:#a3a3a3;stroke:#263238;stroke-miterlimit:10"></rect><rect x="489.57" y="106.74" width="101.58" height="35.84" rx="17.92" style="fill:#92E3A9;stroke:#263238;stroke-miterlimit:10"></rect><rect x="492.2" y="161.45" width="44.63" height="44.63" rx="6.1" style="fill:#92E3A9;stroke:#263238;stroke-miterlimit:10"></rect><path d="M533,187.59V181l-5.58-.3a13.16,13.16,0,0,0-1.11-3l3.75-4.16-4.64-4.64-4,3.59a13.5,13.5,0,0,0-3.09-1.34L518,165.7h-6.56l-.29,5.46a12.92,12.92,0,0,0-3,1.27L504,168.64l-4.64,4.64,3.91,4.34a12.72,12.72,0,0,0-1.06,2.71l-6.06.32v6.56l6.23.33a12.19,12.19,0,0,0,1,2.37l-4.3,4.78,4.64,4.65,4.78-4.31a13.53,13.53,0,0,0,2.24,1l.35,6.55h6.56l.33-6.33a12.38,12.38,0,0,0,2.41-.88l4.74,4.26,4.64-4.64-4-4.45a13.22,13.22,0,0,0,1.24-2.6Zm-18.23,3.17a7.12,7.12,0,1,1,7.11-7.11A7.12,7.12,0,0,1,514.72,190.76Z" style="fill:#263238;stroke:#263238;stroke-miterlimit:10"></path><rect x="628.22" y="161.45" width="44.63" height="44.63" rx="6.1" style="fill:#92E3A9;stroke:#263238;stroke-miterlimit:10"></rect><circle cx="650.53" cy="183.76" r="15.65" transform="translate(233.9 716.09) rotate(-67.72)" style="fill:#263238;stroke:#263238;stroke-miterlimit:10"></circle><rect x="642.59" y="175.82" width="15.89" height="15.89" style="fill:#fff;stroke:#263238;stroke-linecap:round;stroke-linejoin:round"></rect><rect x="560.21" y="220.29" width="44.63" height="44.63" rx="6.1" style="fill:#fff;stroke:#263238;stroke-linecap:round;stroke-linejoin:round"></rect><rect x="567.63" y="232.43" width="30.14" height="21.05" style="fill:#92E3A9;stroke:#263238;stroke-linecap:round;stroke-linejoin:round"></rect><polygon points="567.63 232.43 582.7 242.96 597.77 232.43 567.63 232.43" style="fill:#92E3A9;stroke:#263238;stroke-linecap:round;stroke-linejoin:round"></polygon><rect x="492.2" y="220.29" width="44.63" height="44.63" rx="6.1" style="fill:#92E3A9;stroke:#263238;stroke-miterlimit:10"></rect><path d="M525,236.17a15.19,15.19,0,0,0-1.32-3.42c-.65-1.11-1.07-1.4-3.33-1.4h-4.11v20c0,3.21.33,3.66,4.24,3.91v1.15h-12V255.3c3.83-.25,4.16-.66,4.16-3.91v-20H509c-2.27,0-2.92.25-3.62,1.49a17.91,17.91,0,0,0-1.36,3.33h-1.23c.24-2.51.49-5.1.61-7.41h.95c.62,1,1.07,1,2.22,1h16.29a2.06,2.06,0,0,0,2.1-1h1c0,1.94.17,4.9.37,7.28Z" style="fill:#263238"></path><rect x="628.22" y="220.29" width="44.63" height="44.63" rx="6.1" style="fill:#263238;stroke:#263238;stroke-miterlimit:10"></rect><circle cx="650.53" cy="242.61" r="15.63" style="fill:none;stroke:#92E3A9;stroke-miterlimit:10"></circle><ellipse cx="650.53" cy="242.61" rx="6.92" ry="15.63" style="fill:none;stroke:#92E3A9;stroke-miterlimit:10"></ellipse><line x1="640.43" y1="230.74" x2="660.86" y2="230.74" style="fill:none;stroke:#92E3A9;stroke-miterlimit:10"></line><line x1="635.74" y1="236.83" x2="665.56" y2="236.83" style="fill:none;stroke:#92E3A9;stroke-miterlimit:10"></line><line x1="640.43" y1="254.59" x2="660.86" y2="254.59" style="fill:none;stroke:#92E3A9;stroke-miterlimit:10"></line><line x1="635.74" y1="248.5" x2="665.56" y2="248.5" style="fill:none;stroke:#92E3A9;stroke-miterlimit:10"></line><line x1="635.23" y1="242.68" x2="666.06" y2="242.68" style="fill:none;stroke:#92E3A9;stroke-miterlimit:10"></line></g><g id="freepik--screen-1--inject-156"><rect x="89.2" y="36.31" width="214.83" height="418.11" rx="11.27" style="fill:#fff;stroke:#263238;stroke-linecap:round;stroke-linejoin:round"></rect><path d="M89.2,418.9v24.24a11.28,11.28,0,0,0,11.27,11.28H292.76A11.28,11.28,0,0,0,304,443.14V418.9Z" style="fill:#92E3A9;stroke:#263238;stroke-miterlimit:10"></path><rect x="172.32" y="164.99" width="44.63" height="44.63" style="fill:#263238;stroke:#263238;stroke-miterlimit:10"></rect><rect x="59.07" y="164.99" width="44.63" height="44.63" style="fill:#263238;stroke:#263238;stroke-miterlimit:10"></rect><rect x="172.32" y="223.84" width="44.63" height="44.63" style="fill:#263238;stroke:#263238;stroke-miterlimit:10"></rect><rect x="234.17" y="223.84" width="44.63" height="44.63" style="fill:#263238;stroke:#263238;stroke-miterlimit:10"></rect><rect x="59.07" y="223.84" width="44.63" height="44.63" style="fill:#263238;stroke:#263238;stroke-miterlimit:10"></rect><rect x="174.35" y="161.45" width="44.63" height="44.63" style="fill:#fff;stroke:#263238;stroke-linecap:round;stroke-linejoin:round"></rect><rect x="61.09" y="161.45" width="44.63" height="44.63" style="fill:#92E3A9;stroke:#263238;stroke-miterlimit:10"></rect><rect x="174.35" y="220.29" width="44.63" height="44.63" style="fill:#92E3A9;stroke:#263238;stroke-miterlimit:10"></rect><rect x="236.19" y="220.29" width="44.63" height="44.63" style="fill:#92E3A9;stroke:#263238;stroke-miterlimit:10"></rect><rect x="61.09" y="220.29" width="44.63" height="44.63" style="fill:#fff;stroke:#263238;stroke-linecap:round;stroke-linejoin:round"></rect><path d="M315.62,49.76H274.05a16,16,0,0,0,0,32.09h41.57a16,16,0,0,0,0-32.09Z" style="fill:#263238;stroke:#263238;stroke-miterlimit:10"></path><path d="M318.62,78.13H277.05a16,16,0,0,1-16.05-16h0a16,16,0,0,1,16.05-16h41.57a16,16,0,0,1,16,16h0A16,16,0,0,1,318.62,78.13Z" style="fill:#92E3A9;stroke:#263238;stroke-miterlimit:10"></path><circle cx="276.56" cy="62.09" r="14.26" style="fill:#fff;stroke:#263238;stroke-linecap:round;stroke-linejoin:round"></circle><line x1="107.4" y1="64.99" x2="135.24" y2="64.99" style="fill:none;stroke:#263238;stroke-linecap:round;stroke-linejoin:round"></line><line x1="107.4" y1="72.28" x2="135.24" y2="72.28" style="fill:none;stroke:#263238;stroke-linecap:round;stroke-linejoin:round"></line><line x1="107.4" y1="79.57" x2="135.24" y2="79.57" style="fill:none;stroke:#263238;stroke-linecap:round;stroke-linejoin:round"></line><circle cx="276.4" cy="300.26" r="12.59" style="fill:#fff;stroke:#263238;stroke-linecap:round;stroke-linejoin:round"></circle><circle cx="276.4" cy="341.35" r="12.59" transform="translate(-104.96 559.27) rotate(-80.75)" style="fill:#fff;stroke:#263238;stroke-linecap:round;stroke-linejoin:round"></circle><circle cx="276.4" cy="382.44" r="12.59" style="fill:#fff;stroke:#263238;stroke-linecap:round;stroke-linejoin:round"></circle><line x1="106.09" y1="91.69" x2="291.78" y2="91.69" style="fill:none;stroke:#263238;stroke-linecap:round;stroke-linejoin:round"></line><rect x="49.69" y="290.75" width="151.58" height="115.98" style="fill:#263238;stroke:#263238;stroke-miterlimit:10"></rect><line x1="49.69" y1="406.73" x2="201.28" y2="290.75" style="fill:#263238;stroke:#263238;stroke-miterlimit:10"></line><line x1="49.69" y1="290.75" x2="201.28" y2="406.73" style="fill:#263238;stroke:#263238;stroke-miterlimit:10"></line><rect x="54.25" y="285.68" width="151.58" height="115.98" style="fill:#fff;stroke:#263238;stroke-linecap:round;stroke-linejoin:round"></rect><line x1="54.25" y1="401.66" x2="205.83" y2="285.68" style="fill:none;stroke:#263238;stroke-linecap:round;stroke-linejoin:round"></line><line x1="54.25" y1="285.68" x2="205.83" y2="401.66" style="fill:none;stroke:#263238;stroke-linecap:round;stroke-linejoin:round"></line><path d="M325.93,145.12H178.49a17.92,17.92,0,0,1-17.92-17.92h0a17.92,17.92,0,0,1,17.92-17.93H325.93a17.92,17.92,0,0,1,17.92,17.93h0A17.92,17.92,0,0,1,325.93,145.12Z" style="fill:#263238;stroke:#263238;stroke-miterlimit:10"></path><rect x="164.62" y="106.74" width="183.28" height="35.84" rx="17.92" style="fill:#fff;stroke:#263238;stroke-linecap:round;stroke-linejoin:round"></rect></g><g id="freepik--speech-bubble--inject-156"><path d="M447.13,116.65a32.8,32.8,0,0,0-26.46,52.2l-12.31,16.07,20.05-8.53a32.8,32.8,0,1,0,18.72-59.74Z" style="fill:#fff;stroke:#263238;stroke-linecap:round;stroke-linejoin:round"></path><path d="M435.92,161.06l-12.52-8.82v-5l12.52-8.82v5.52l-8,5.81,8,5.81Z" style="fill:#263238"></path><path d="M440,164.6l10-33.37h3.66l-10,33.37Z" style="fill:#263238"></path><path d="M457.51,161.06v-5.52l8.07-5.85-8.07-5.77V138.4l12.56,8.82v5Z" style="fill:#263238"></path></g></svg>
