<svg xmlns="http://www.w3.org/2000/svg" viewBox="0 0 500 500"><g id="freepik--background-complete--inject-150"><path d="M318.51,161.39,315.31,178a12.46,12.46,0,0,1-14.94,10.1,12.77,12.77,0,0,1-10.11-14.93l5.13-26.59c.05-.25.31-.2.36-.46-.21-.3-.21-.3-.16-.56a13.12,13.12,0,0,1,14.93-10.11,29.4,29.4,0,0,0,34.67-23c3.11-16.1-7.52-31.14-23.62-34.25a28.79,28.79,0,0,0-27.25,9.33,12.84,12.84,0,0,1-18.27,1.25,12.68,12.68,0,0,1-1-18,54.71,54.71,0,1,1,43.5,90.57Zm-10.79,56-.89,4.6a12.46,12.46,0,0,1-14.95,10.11,12.78,12.78,0,0,1-10.1-14.94l.89-4.6a12.94,12.94,0,0,1,14.93-10.11A12.62,12.62,0,0,1,307.72,217.37Z" style="fill:#ebebeb"></path><path d="M159,208.23l-4-16.44a12.46,12.46,0,0,1,9.39-15.41,12.78,12.78,0,0,1,15.4,9.38l6.39,26.31c.06.25-.2.31-.13.57.31.19.31.19.38.44a13.14,13.14,0,0,1-9.38,15.41c-15.94,3.88-25.77,19.66-22,35.34,3.87,15.94,19.79,25.2,35.73,21.32a28.77,28.77,0,0,0,20.9-19.81,12.83,12.83,0,0,1,16.09-8.73,12.69,12.69,0,0,1,8.42,15.9A54.71,54.71,0,1,1,159,208.23Zm-13.46-55.39-1.1-4.56a12.45,12.45,0,0,1,9.38-15.41,12.78,12.78,0,0,1,15.4,9.39l1.11,4.55a12.94,12.94,0,0,1-9.38,15.4A12.62,12.62,0,0,1,145.55,152.84Z" style="fill:#ebebeb"></path></g><g id="freepik--Tool--inject-150"><path d="M375.38,389.51a49.92,49.92,0,0,1-6.6,21.42h-9.06a49.75,49.75,0,0,1-6.6-21.42c9.3-5.2,9.54-16.84,9.54-16.84h.94V391.1a2.84,2.84,0,1,0,1.3,0V372.67h.94S366.08,384.31,375.38,389.51Z" style="fill:#455a64"></path><rect x="357.56" y="409.83" width="13.38" height="5.63" style="fill:#455a64"></rect><path d="M395.31,402.8h-.9a30.16,30.16,0,1,0-60.32,0h-.91a31.07,31.07,0,1,1,62.13,0Z" style="fill:#455a64"></path><rect x="332.94" y="371.36" width="61.92" height="0.9" style="fill:#455a64"></rect><rect x="330.45" y="399.61" width="6.37" height="6.37" style="fill:#455a64"></rect><path d="M337.27,406.43H330v-7.27h7.27Zm-6.37-.9h5.47v-5.47H330.9Z" style="fill:#455a64"></path><rect x="330.45" y="368.63" width="6.37" height="6.37" style="fill:#455a64"></rect><path d="M337.27,375.45H330v-7.28h7.27Zm-6.37-.91h5.47v-5.46H330.9Z" style="fill:#455a64"></path><rect x="391.68" y="399.61" width="6.37" height="6.37" style="fill:#455a64"></rect><path d="M398.5,406.43h-7.27v-7.27h7.27Zm-6.37-.9h5.46v-5.47h-5.46Z" style="fill:#455a64"></path><rect x="391.68" y="368.63" width="6.37" height="6.37" style="fill:#455a64"></rect><path d="M398.5,375.45h-7.27v-7.28h7.27Zm-6.37-.91h5.46v-5.46h-5.46Z" style="fill:#455a64"></path></g><g id="freepik--Text--inject-150"><polygon points="455.51 288.18 454.16 288.18 454.16 287.28 454.61 287.28 454.61 286.83 455.51 286.83 455.51 288.18" style="fill:#455a64"></polygon><path d="M452.33,288.18h-1.82v-.9h1.82Zm-3.65,0h-1.83v-.9h1.83Zm-3.65,0H443.2v-.9H445Zm-3.65,0h-1.83v-.9h1.83Zm-3.66,0H435.9v-.9h1.82Zm-3.65,0h-1.82v-.9h1.82Zm-3.65,0h-1.83v-.9h1.83Zm-3.65,0h-1.83v-.9h1.83Zm-3.65,0h-1.83v-.9h1.83Zm-3.66,0h-1.82v-.9h1.82Zm-3.65,0H414v-.9h1.82Zm-3.65,0h-1.83v-.9h1.83Zm-3.65,0h-1.83v-.9h1.83Z" style="fill:#455a64"></path><polygon points="404.86 288.18 403.5 288.18 403.5 286.83 404.4 286.83 404.4 287.28 404.86 287.28 404.86 288.18" style="fill:#455a64"></polygon><path d="M404.4,285h-.9v-1.83h.9Zm0-3.65h-.9v-1.83h.9Zm0-3.65h-.9v-1.83h.9Zm0-3.66h-.9v-1.82h.9Zm0-3.65h-.9v-1.82h.9Zm0-3.65h-.9v-1.83h.9Zm0-3.65h-.9v-1.83h.9Zm0-3.65h-.9v-1.83h.9Zm0-3.66h-.9V254h.9Zm0-3.65h-.9V250.3h.9Zm0-3.65h-.9v-1.83h.9Zm0-3.65h-.9V243h.9Zm0-3.66h-.9v-1.82h.9Z" style="fill:#455a64"></path><polygon points="404.4 237.52 403.5 237.52 403.5 236.17 404.86 236.17 404.86 237.07 404.4 237.07 404.4 237.52" style="fill:#455a64"></polygon><path d="M452.33,237.07h-1.82v-.9h1.82Zm-3.65,0h-1.83v-.9h1.83Zm-3.65,0H443.2v-.9H445Zm-3.65,0h-1.83v-.9h1.83Zm-3.66,0H435.9v-.9h1.82Zm-3.65,0h-1.82v-.9h1.82Zm-3.65,0h-1.83v-.9h1.83Zm-3.65,0h-1.83v-.9h1.83Zm-3.65,0h-1.83v-.9h1.83Zm-3.66,0h-1.82v-.9h1.82Zm-3.65,0H414v-.9h1.82Zm-3.65,0h-1.83v-.9h1.83Zm-3.65,0h-1.83v-.9h1.83Z" style="fill:#455a64"></path><polygon points="455.51 237.52 454.61 237.52 454.61 237.07 454.16 237.07 454.16 236.17 455.51 236.17 455.51 237.52" style="fill:#455a64"></polygon><path d="M455.51,285h-.9v-1.83h.9Zm0-3.65h-.9v-1.83h.9Zm0-3.65h-.9v-1.83h.9Zm0-3.66h-.9v-1.82h.9Zm0-3.65h-.9v-1.82h.9Zm0-3.65h-.9v-1.83h.9Zm0-3.65h-.9v-1.83h.9Zm0-3.65h-.9v-1.83h.9Zm0-3.66h-.9V254h.9Zm0-3.65h-.9v-1.82h.9Zm0-3.65h-.9v-1.83h.9Zm0-3.65h-.9V243h.9Zm0-3.66h-.9v-1.82h.9Z" style="fill:#455a64"></path><rect x="400.77" y="284.54" width="6.37" height="6.37" style="fill:#455a64"></rect><path d="M407.59,291.36h-7.27v-7.27h7.27Zm-6.37-.9h5.47V285h-5.47Z" style="fill:#455a64"></path><rect x="400.77" y="258.99" width="6.37" height="6.37" style="fill:#455a64"></rect><path d="M407.59,265.81h-7.27v-7.27h7.27Zm-6.37-.9h5.47v-5.47h-5.47Z" style="fill:#455a64"></path><rect x="400.77" y="233.44" width="6.37" height="6.37" style="fill:#455a64"></rect><path d="M407.59,240.26h-7.27V233h7.27Zm-6.37-.91h5.47v-5.46h-5.47Z" style="fill:#455a64"></path><rect x="451.88" y="284.54" width="6.37" height="6.37" style="fill:#455a64"></rect><path d="M458.7,291.36h-7.27v-7.27h7.27Zm-6.37-.9h5.46V285h-5.46Z" style="fill:#455a64"></path><rect x="451.88" y="258.99" width="6.37" height="6.37" style="fill:#455a64"></rect><path d="M458.7,265.81h-7.27v-7.27h7.27Zm-6.37-.9h5.46v-5.47h-5.46Z" style="fill:#455a64"></path><rect x="451.88" y="233.44" width="6.37" height="6.37" style="fill:#455a64"></rect><path d="M458.7,240.26h-7.27V233h7.27Zm-6.37-.91h5.46v-5.46h-5.46Z" style="fill:#455a64"></path><rect x="426.32" y="233.44" width="6.37" height="6.37" style="fill:#455a64"></rect><path d="M433.14,240.26h-7.27V233h7.27Zm-6.37-.91h5.47v-5.46h-5.47Z" style="fill:#455a64"></path><rect x="426.32" y="284.54" width="6.37" height="6.37" style="fill:#455a64"></rect><path d="M433.14,291.36h-7.27v-7.27h7.27Zm-6.37-.9h5.47V285h-5.47Z" style="fill:#455a64"></path><path d="M430.13,268.25h-10.2l-4,11.13h3.86v1h-7.88v-1h2.42L427.5,244h4.22l13,35.39h2.37v1H430.23v-1h3.65Zm-9.74-1.13h9.32l-4.48-13.5Z" style="fill:#455a64"></path></g><g id="freepik--Eyedropper--inject-150"><path d="M419.7,78.08l-32.09,31.85a5.56,5.56,0,1,1-7.84-7.89l32.08-31.87Z" style="fill:#ebebeb"></path><polygon points="419.7 78.08 410.58 87.13 404.51 77.45 411.85 70.17 419.7 78.08" style="fill:#c7c7c7"></polygon><path d="M377.64,112h0a1.42,1.42,0,0,1,0-2l7.26-7.21,2,2L379.64,112A1.42,1.42,0,0,1,377.64,112Z" style="fill:#ebebeb"></path><path d="M386.9,104.78,379.64,112a1.41,1.41,0,0,1-2-2l1.23-1.22,6-6Z" style="fill:#ebebeb"></path><rect x="405.08" y="72.59" width="16.66" height="7.86" transform="translate(176.4 -270.74) rotate(45.2)" style="fill:#455a64"></rect><path d="M416.93,80.82l-7.84-7.9,6.62-6.59a5.58,5.58,0,0,1,7.88,0h0a5.57,5.57,0,0,1,0,7.87Z" style="fill:#455a64"></path><path d="M399.53,98.1l-11.92,11.83a5.52,5.52,0,0,1-6.74.84L379.64,112a1.41,1.41,0,0,1-2-2l1.23-1.22a5.51,5.51,0,0,1,.88-6.73l4-4Z" style="fill:#455a64"></path></g><g id="freepik--Scheme--inject-150"><path d="M118,366.39H84v-13.8H118Zm-30.94-3H115v-7.8H87Z" style="fill:#FFC727"></path><path d="M97.76,390.83H63.81V377h34Zm-30.95-3h28V380H66.81Z" style="fill:#FFC727"></path><path d="M118,415.27H84V401.48H118Zm-30.94-3H115v-7.79H87Z" style="fill:#FFC727"></path><path d="M137.91,390.83H104V377h33.94Zm-30.94-3h27.94V380H107Z" style="fill:#FFC727"></path><polygon points="81.78 378.54 79.78 378.54 79.78 369.84 99.99 369.84 99.99 364.89 101.99 364.89 101.99 371.84 81.78 371.84 81.78 378.54" style="fill:#FFC727"></polygon><polygon points="122.2 378.54 120.2 378.54 120.2 371.84 99.99 371.84 99.99 364.89 101.99 364.89 101.99 369.84 122.2 369.84 122.2 378.54" style="fill:#FFC727"></polygon><polygon points="101.99 402.98 99.99 402.98 99.99 396.28 79.78 396.28 79.78 389.33 81.78 389.33 81.78 394.28 101.99 394.28 101.99 402.98" style="fill:#FFC727"></polygon></g><g id="freepik--magnifying-glass--inject-150"><rect x="92.75" y="276.03" width="5.38" height="19.24" transform="translate(339.37 462.29) rotate(144.39)" style="fill:#FFC727"></rect><polygon points="107.53 309.52 114.15 304.78 114.15 304.78 101.38 286.95 101.38 286.95 94.76 291.69 94.76 291.69 107.53 309.52" style="fill:#263238"></polygon><path d="M102.5,255.76a26.25,26.25,0,1,0-33.95,28.42,26.25,26.25,0,0,0,34-28.42Zm-7,9.41a20,20,0,1,1-1.34-15.23A20,20,0,0,1,95.52,265.17Z" style="fill:#FFC727"></path><g style="opacity:0.5"><path d="M56.76,255.9a20,20,0,1,0,23-16.45A20,20,0,0,0,56.76,255.9Z" style="fill:#fff"></path><path d="M56.63,261.55a20,20,0,0,0,16.58,17.32,19.74,19.74,0,0,0,5.47.15Z" style="fill:#ebebeb"></path><path d="M64.65,243.05,94.85,267a20,20,0,0,0,1.47-10L74,239.32A20,20,0,0,0,64.65,243.05Z" style="fill:#ebebeb"></path><path d="M57.18,254,86,276.74a19.89,19.89,0,0,0,3.25-2.19L58.56,250.28A19.68,19.68,0,0,0,57.18,254Z" style="fill:#ebebeb"></path><path d="M62.56,244.82l31.05,24.59c.13-.21.25-.41.37-.63L63.09,244.33C62.91,244.48,62.73,244.65,62.56,244.82Z" style="fill:#ebebeb"></path><path d="M80.71,239.63l13.78,10.92c-.25-.54-.54-1.07-.84-1.58l-11.21-8.88C81.87,239.91,81.3,239.76,80.71,239.63Z" style="fill:#ebebeb"></path></g><path d="M70.49,274.91a16.82,16.82,0,0,1-5.86-3.5,17.83,17.83,0,0,1-2.34-2.56,17.49,17.49,0,0,1-1.79-3,16.33,16.33,0,0,1-1.5-6.78,17.94,17.94,0,0,1,1.26-6.71,31.55,31.55,0,0,0-.12,6.65,17.94,17.94,0,0,0,.59,3.19,17.21,17.21,0,0,0,1.09,3,20.92,20.92,0,0,0,3.61,5.37A28.4,28.4,0,0,0,70.49,274.91Z" style="fill:#fff"></path></g><g id="freepik--Pencil--inject-150"><rect x="62.63" y="83.91" width="44.46" height="13.19" transform="translate(88.85 -33.5) rotate(45)" style="fill:#FFC727"></rect><path d="M62.5,77.47l-2-2a6.59,6.59,0,0,1,0-9.33h0a6.6,6.6,0,0,1,9.32,0l2,2Z" style="fill:#ff9bbc"></path><rect x="66.75" y="67.2" width="2.8" height="13.19" transform="translate(64.16 174.17) rotate(-135)" style="fill:#c7c7c7"></rect><path d="M95.79,110.76l9,2,3,.65-.62-2.94-1.9-8.88-2.06-.17s.17,2,.17,2l-2.06-.17s.17,2,.17,2l-2-.19s.15,2,.15,2l-2-.19s.15,2,.14,2l-2-.18S95.8,110.72,95.79,110.76Z" style="fill:#FFC727"></path><path d="M95.79,110.76l9,2,3,.65-.62-2.94-1.9-8.88-2.06-.17s.17,2,.17,2l-2.06-.17s.17,2,.17,2l-2-.19s.15,2,.15,2l-2-.19s.15,2,.14,2l-2-.18S95.8,110.72,95.79,110.76Z" style="fill:#fff;opacity:0.7000000000000001"></path><polygon points="104.79 112.73 107.76 113.39 107.14 110.44 104.79 112.73" style="fill:#263238"></polygon><g style="opacity:0.1"><path d="M74.67,73.61Q87.81,85.7,99.92,98.86,86.77,86.79,74.67,73.61Z"></path><path d="M72.44,75.83Q85.6,87.92,97.69,101.09,84.54,89,72.44,75.83Z"></path><path d="M70.22,78.06q13.16,12.07,25.25,25.25Q82.32,91.24,70.22,78.06Z"></path><path d="M68,80.28q13.16,12.09,25.26,25.25Q80.08,93.46,68,80.28Z"></path></g></g><g id="freepik--Character--inject-150"><path d="M328.3,461.63H222.24q-1.31-5.11-2.57-10.08c-1-3.8-1.92-7.51-2.83-11.13-.2-.8-.42-1.61-.62-2.4-.7-2.77-1.38-5.47-2.06-8.1-.4-1.6-.8-3.17-1.19-4.73s-.81-3.14-1.2-4.66c-.11-.4-.2-.81-.31-1.2s-.21-.87-.32-1.3l-.4-1.57v0q-.23-.82-.42-1.62c-.27-1-.52-2-.77-3-.37-1.46-.74-2.88-1.09-4.26-.14-.61-.3-1.21-.45-1.81-.26-1-.5-1.9-.73-2.83-.16-.62-.31-1.22-.46-1.82-.63-2.43-1.2-4.71-1.74-6.85-.15-.57-.28-1.12-.43-1.65-.23-.93-.46-1.82-.67-2.68-.15-.54-.29-1.06-.41-1.57-.47-1.83-.9-3.5-1.26-5-.11-.39-.2-.77-.3-1.13-.24-1-.47-1.83-.66-2.59-.08-.31-.14-.61-.22-.88s-.15-.59-.22-.84-.09-.38-.13-.54-.14-.51-.19-.73l-.08-.32-.24-1H303.5s3.4,11.72,8.85,30.61c1.1,3.85,2.3,8,3.57,12.41C319.54,431,323.76,445.72,328.3,461.63Z" style="fill:#37474f"></path><path d="M239.61,461.63H237q-5.9-24.37-11.41-48.83c-.89-4-1.76-7.93-2.64-11.91l-.24-1.11c0-.2.26-.29.31-.08s.07.24.11.36c1.19,4.26,2.39,8.53,3.56,12.81C231.13,429.08,235.41,445.34,239.61,461.63Z" style="fill:#263238"></path><path d="M300.16,375.4l-4.56,22.8-3.74,18.71-6.35,31.89-.66,3.26-1.09,5.44-.82,4.13H222.23q-1.29-5.14-2.56-10.08c-1-3.8-1.92-7.51-2.83-11.13-.2-.8-.42-1.61-.62-2.4-.7-2.77-1.38-5.47-2.06-8.1-.4-1.6-.8-3.17-1.19-4.73s-.81-3.14-1.2-4.66c-.11-.4-.2-.81-.31-1.2s-.21-.87-.32-1.3l-.4-1.57v0q-.23-.82-.42-1.62c-.27-1-.52-2-.77-3-.37-1.46-.74-2.88-1.09-4.26-.16-.62-.3-1.21-.45-1.81-.26-1-.5-1.9-.73-2.83-.16-.62-.31-1.22-.46-1.82-.63-2.43-1.2-4.71-1.74-6.85-.15-.57-.28-1.12-.43-1.65-.23-.93-.46-1.82-.67-2.68-.15-.54-.29-1.06-.41-1.57-.47-1.83-.9-3.5-1.26-5-.11-.39-.2-.77-.3-1.13-.24-1-.47-1.83-.66-2.59-.08-.31-.14-.61-.22-.88s-.15-.59-.22-.84-.09-.38-.13-.54-.14-.51-.19-.73l-.08-.32-.24-1Z" style="fill:#263238"></path><path d="M300.17,375.36v0c0,.56-.43,6.72-1.42,16.11-.29,2.74-.62,5.75-1,9-.61,5.09-1.36,10.71-2.29,16.65-1.58,10.36-3.65,21.67-6.34,32.72q-1.44,6-3.12,11.77l-133.26.05s-3.86-7.34-3.55-11.22c1.21-15.58,10.32-75.06,10.32-75.06l120.89,0Z" style="fill:#37474f"></path><path d="M287.94,387.6c-.15,4.77-.35,9.53-.66,14.27-.32,5.15-.79,10.29-1.47,15.42,0,.19,0,.38-.06.56-.64,4.82-1.35,9.61-2.17,14.4-.76,4.46-1.33,9.27-3.3,13.4a13.28,13.28,0,0,1-3.12,4.21,9.27,9.27,0,0,1-4.26,2.2,5.35,5.35,0,0,1-.8.14h-.22a.28.28,0,0,1,.14.28c0,1.6,0,3.23-.19,4.81,0,.07,0,.14,0,.2-.16,1.39-.42,2.76-.67,4.13h-2.29a.26.26,0,0,1,0-.08c.4-1.51.74-3,1.11-4.54s.92-3.07,1.28-4.64c0-.07.07-.11.11-.15a7.09,7.09,0,0,1-6.88-4.31c-.77-2.05-.42-4.17-.11-6.27.42-2.72.82-5.45,1.24-8.18.77-5,1.78-10,2.67-15,.13-.75.27-1.52.4-2.27,1.79-10.15,3.66-20.3,5.9-30.35.08-.42.18-.83.27-1.25a.25.25,0,0,1,.49.07c-.07.67-.14,1.35-.22,2q-.58,5.77-1.38,11.53c-.65,4.5-1.09,9-1.72,13.53-.22,1.54-.43,3.07-.66,4.6-1,7.41-2.11,14.81-3.38,22.19-.59,3.43-2.72,9.57,2.21,10.63a5.06,5.06,0,0,0,3.35-.41c2.19-1.09,3.79-3.59,4.58-5.8,1.4-3.92,1.89-8.25,2.62-12.34q1.22-6.77,2.15-13.56h0c.81-5.66,1.64-11.31,2.53-16.95.44-2.88.9-5.75,1.35-8.63.22-1.33.43-2.66.65-4C287.49,387.24,287.94,387.32,287.94,387.6Z" style="fill:#263238"></path><path d="M182,423a67.11,67.11,0,0,0,16.44-2.21c2.48-.64,4.92-1.43,7.35-2.23a19.22,19.22,0,0,0,6.64-3.33c3.73-3.22,5.47-8.3,7.1-12.8a123.53,123.53,0,0,0,4.31-15.55c0-.27.43-.18.44.07A60.15,60.15,0,0,1,222,404.63c-1.34,4.87-3.14,10.31-7.08,13.73-4.14,3.59-9.76,4.85-15.06,5.51a69.35,69.35,0,0,1-17.92-.25A.3.3,0,0,1,182,423Z" style="fill:#263238"></path><path d="M172.73,387.06c-.3,7.46-7.79,50.79-8.54,65.55-.13,2.63,5.22,6.38,5.08,9h-2.5c.17-2.58-5.15-6.27-5-8.85,1-14.85,9.7-58.29,10.28-65.73A.33.33,0,0,1,172.73,387.06Z" style="fill:#263238"></path><path d="M284.94,221.33c46.75,42.33,80,78.82,79.54,95.4-1,37.17-20.59,45.19-24.07,44-36.86-12.51-60.3-82.69-75.79-125.08C249.23,193.58,271.56,209.21,284.94,221.33Z" style="fill:#d3766a"></path><path d="M351.29,281.65,292.4,313.09s-24-52.34-32.15-83.63,4.37-30.29,31.79-5.8S351.29,281.65,351.29,281.65Z" style="fill:#FFC727"></path><path d="M339.29,272.57c-22.73,15.13-44.73,24.91-49.14,27.4-.21.12-.37-.23-.15-.33,4.45-2.23,28.64-17,49.12-27.45C339.35,272.07,339.51,272.42,339.29,272.57Z" style="fill:#263238"></path><path d="M338.42,289.19l-46,23.9s-24-52.34-32.17-83.63c-3-11.53-3.2-18.68-.88-21.88Z" style="opacity:0.1"></path><path d="M306.29,382.52l-148.45,3.89s-7.31-7.56-6.2-16.49c4.1-32.93,56.46-148.38,76.84-162.26,9.12-6.21,28.67-11.07,39.53-2.93,16.89,12.65,33.65,103.11,43.22,154.15C314,373.52,306.39,382.38,306.29,382.52Z" style="fill:#ebebeb"></path><path d="M229.38,215.11a57.88,57.88,0,0,0,20.33,20.31c4.08,2.3,8.48,4,13,4a10.61,10.61,0,0,0,6.63-1.86,13.92,13.92,0,0,0,4-5.92,30.07,30.07,0,0,0,1.8-8.24,74.5,74.5,0,0,0,.21-9.69c0-.12.16-.1.17,0,.14,3.06.5,6.13.43,9.19a32.89,32.89,0,0,1-1,8,17.85,17.85,0,0,1-3.31,6.65,9.71,9.71,0,0,1-6.3,3.36c-4.68.69-9.53-.68-13.94-2.92a48,48,0,0,1-11.92-8.74,56.61,56.61,0,0,1-10.24-14A.14.14,0,1,1,229.38,215.11Z" style="fill:#263238"></path><path d="M232.67,202s6.24,53.73,6.94,78.67S232.67,447,232.67,447s-60.76-11.56-68.32-13.57-28.18-21.94-28.18-21.94S183.72,239.72,232.67,202Z" style="fill:#FFC727"></path><path d="M268,204.73c7.25,9,18,61.67,18.78,67s22.59,168.9,22.59,168.9,13.4-13.28,14.43-17.64-13.07-83.13-19.59-112.45c-7.36-33.11-18.88-82.15-26.58-93.57A93.64,93.64,0,0,0,268,204.73Z" style="fill:#FFC727"></path><path d="M337.75,358.79C328,345.21,318.43,313.23,328,247.68c1.32-9.07,67.29-4.31,66.38,5.45-1.15,12.29-8.27,59.75-9.23,63.15C377,345,344.36,368,337.75,358.79Z" style="fill:#d3766a"></path><path d="M330.93,347.43a72.51,72.51,0,0,1-5.29-14.17c-.64-2.45-1.23-4.91-1.67-7.4a61.34,61.34,0,0,1-.88-7.58,149.79,149.79,0,0,1-.2-15.13,113.18,113.18,0,0,1,1.4-15c-.2,5-.15,10-.06,15.06s.29,10,.65,15c.21,2.49.42,5,.84,7.39s.89,4.91,1.43,7.35C328.21,337.77,329.39,342.64,330.93,347.43Z" style="fill:#263238"></path><path d="M342.22,222c-11.7,6.67-14.25,25.67-14.25,25.67l51.4,24.22s10.63-15.14,19.3-19.77c2.52-1.35,15.41-8.93,28.39-15.49,14.73-7.44,29.23-17.13,29.93-19,1.35-3.59-3.66-7.56-14.76-4.89S410.38,224.37,409,224.58a9.63,9.63,0,0,1-1.4-.07h0c-.58-.23-10.47-13.07-17.8-12.85S350.32,217.4,342.22,222Z" style="fill:#d3766a"></path><path d="M391,237.53s27.8-.58,32.48-4,35.86-19.61,37.29-23.16-3.67-7.56-14.77-4.9-31.84,11.62-33.23,11.83-25.64-3.27-28-2.92S391,237.53,391,237.53Z" style="fill:#d3766a"></path><path d="M406.66,239.42c2.95-.73,5.88-1.59,8.81-2.43,1.46-.44,2.91-.9,4.36-1.39.72-.25,1.45-.5,2.17-.77.36-.13.72-.29,1.09-.44a11.31,11.31,0,0,0,1.06-.57c5.27-3,10.56-6,15.82-9.09s10.48-6.14,15.68-9.39a19.5,19.5,0,0,0,3.6-3,8.6,8.6,0,0,0,1.38-2,3.93,3.93,0,0,0,.43-2.47,3.16,3.16,0,0,0-1.46-2,6.79,6.79,0,0,0-2.19-.89,16.84,16.84,0,0,0-4.58-.35,19.45,19.45,0,0,1,4.46.76,6.5,6.5,0,0,1,1.95,1,2.43,2.43,0,0,1,1,1.65c.16,1.31-.77,2.6-1.77,3.61a18.09,18.09,0,0,1-3.52,2.66c-5.27,3-10.58,6-15.83,9.05s-10.49,6.16-15.65,9.44a22.17,22.17,0,0,1-4,1.88c-1.41.55-2.84,1.07-4.26,1.6Z" style="fill:#263238"></path><path d="M386.26,233.35s30.47-.75,35.15-4.16,35.86-19.61,37.28-23.17-3.67-7.55-14.77-4.89S412.09,212.75,410.69,213s-25.14-.72-27.47-.37S386.26,233.35,386.26,233.35Z" style="fill:#d3766a"></path><path d="M401.46,237.08c3.59-1.06,7.12-2.26,10.66-3.46q2.64-.94,5.27-2,1.31-.51,2.61-1.08a21.82,21.82,0,0,0,2.54-1.33q9.65-5.64,19.28-11.38l9.58-5.82,2.38-1.48a21.78,21.78,0,0,0,2.38-1.62,11.61,11.61,0,0,0,2.08-2.12,5.17,5.17,0,0,0,1.11-3,3,3,0,0,0-.54-1.64,3.68,3.68,0,0,0-1.22-1.08,8.55,8.55,0,0,0-2.82-1,25.89,25.89,0,0,0-5.69-.23,32.57,32.57,0,0,0-10.9,2.65,34.71,34.71,0,0,1,10.93-1.87,26.13,26.13,0,0,1,5.47.44,7.69,7.69,0,0,1,2.43.91,2,2,0,0,1,1.11,1.78,3.91,3.91,0,0,1-.95,2.14,11.19,11.19,0,0,1-1.88,1.82c-1.4,1-3.1,1.94-4.68,2.91L441,216.48c-6.4,3.85-12.8,7.68-19.13,11.67a19.49,19.49,0,0,1-2.36,1.37c-.83.4-1.67.79-2.52,1.16q-2.55,1.13-5.15,2.17Z" style="fill:#263238"></path><path d="M386.51,234.3s26.3-6.85,30.65-10,26.34-12.9,27.67-16.21-3.42-7-13.75-4.56-22.59,5.46-23.89,5.66-21.8,3.09-24,3.42S386.51,234.3,386.51,234.3Z" style="fill:#d3766a"></path><path d="M394.08,234.64c4.57-1.5,9.11-3.08,13.66-4.64q3.42-1.16,6.81-2.39l1.7-.62a15,15,0,0,0,1.69-.75c1.09-.54,2.15-1.13,3.2-1.71,4.2-2.38,8.34-4.84,12.39-7.45,2-1.31,4-2.63,6-4,1-.68,2-1.38,3-2.1a22.54,22.54,0,0,0,2.88-2.42,3.08,3.08,0,0,0,.85-2.17,3.13,3.13,0,0,0-1.09-2.06,9.06,9.06,0,0,0-3.49-1.81,15.65,15.65,0,0,0-7.51-.34c-4.74,1-9.4,2.09-14.09,3.18s-9.42,2.2-14,3.35c-2.33.46-4.72.85-7.08,1.26s-4.74.86-7.09,1.38c4.82-.28,9.58-.72,14.4-1.3l14.09-3.24c4.69-1,9.39-2.11,14.07-3.05a14.32,14.32,0,0,1,6.76.27,7.54,7.54,0,0,1,2.89,1.43,1.31,1.31,0,0,1,.14,2.1,21.1,21.1,0,0,1-2.63,2.23c-.95.72-1.92,1.42-2.9,2.1-2,1.37-4,2.7-6,4-4,2.6-8,5.23-12.17,7.67-1,.61-2.07,1.21-3.12,1.77a28.94,28.94,0,0,1-3.25,1.41l-6.72,2.61Z" style="fill:#263238"></path><path d="M265,232.78c-9.27,3.15-26.94-9.79-34.49-20.92-.52-.76-.1-9.37-.08-19.85,0-6.36-.18-13.44-.8-19.9-.13-1.32,41.41,6,41.41,6s-2.68,13.9-1.53,25.15a14.13,14.13,0,0,0,.53,2.62c0,.12.07.26.1.43C271.47,211.22,274,229.73,265,232.78Z" style="fill:#d3766a"></path><path d="M271.08,178.07a113,113,0,0,0-1.82,19.76c-19.67,6.76-35.19-3.72-38.8-6.48,0-6.19-.2-13-.79-19.23Z" style="fill:#263238"></path><path d="M290.82,124.13c2.06,14.93-12.08,54.83-23.68,62.36-16.81,10.93-41,8.33-49.49-11.13-8.19-18.86,11.15-70.53,23.8-77C260.08,88.74,287.8,102.07,290.82,124.13Z" style="fill:#d3766a"></path><path d="M250.05,143.22c.06-.09.16.2.12.31-1,2.65-1.74,5.86.37,7.6.07.05,0,.19-.08.14C247.65,149.82,248.66,145.57,250.05,143.22Z" style="fill:#263238"></path><path d="M253.42,141.26c4.43,1.18,1.74,10-2.36,8.85S249.71,140.27,253.42,141.26Z" style="fill:#263238"></path><path d="M233.76,137.41c0-.11-.25.07-.28.18-.73,2.75-2,5.77-4.76,5.94-.08,0-.11.14,0,.16C231.83,144.16,233.51,140.13,233.76,137.41Z" style="fill:#263238"></path><path d="M232.18,133.84c-4.27-1.64-7.24,7-3.28,8.56S235.77,135.22,232.18,133.84Z" style="fill:#263238"></path><path d="M258.56,137.5a34.11,34.11,0,0,1-3.2-2c-1.22-.77-2.27-1.26-2.87-2.64a1.94,1.94,0,0,1,.81-2.23c1.6-.89,3.33-.31,4.84.56a7.1,7.1,0,0,1,3.31,3.86A2.07,2.07,0,0,1,258.56,137.5Z" style="fill:#263238"></path><path d="M231.85,124.21a33.72,33.72,0,0,0,3.76-.1c1.44,0,2.6,0,3.82-.84a2,2,0,0,0,.42-2.33c-.94-1.58-2.72-2-4.46-2a7,7,0,0,0-4.81,1.66A2.06,2.06,0,0,0,231.85,124.21Z" style="fill:#263238"></path><path d="M242.62,164.66c-3-2.44-7.57-3.38-10.47-3.91-.3-.15-.39-.85-.35-1.16v0c0-.1,2-5.67,2-5.67-.87.14-5.25.66-4.86-.4,3.34-8.75,7-18.47,12.2-26.47a.26.26,0,0,1,.47.22c-2.87,8.53-7.22,16.5-10.24,25,1.37-.08,3.64-.32,4.71,0,.27.18-2.39,5.9-2.58,6.85,0,0,6,.08,9.55,4.32C244,164.59,244.05,165.82,242.62,164.66Z" style="fill:#263238"></path><path d="M245.87,170.43c-.85.42-1.76,1.08-2.76.85a7.38,7.38,0,0,1-2.67-1.6.1.1,0,0,0-.16.1,3.79,3.79,0,0,0,2.94,2.55,3,3,0,0,0,2.87-1.7C246.18,170.49,246,170.37,245.87,170.43Z" style="fill:#263238"></path><path d="M274.1,146.93c-.26-9.07,8.68-21.37,5.72-26.32-6.42-10.71-29.3-1-41.8-4.77-12.11-3.65-13.76-12.67-8.56-21.8S245,80.87,259.22,83c14.68,2.23,25.74,11.82,31.32,18.42,0,0-1.54-5.83.07-7s6.08,5.36,7.27,7.92A19,19,0,0,1,299,109.1a20.24,20.24,0,0,1,5.7,1.13c3.05,1,6.18,4.62,6.18,5.41s-4.58,0-7.71-.79c0,0,3.4,9.41,1.26,15.91s-21.87,34.41-24.41,34C276.78,164.22,274.21,150.61,274.1,146.93Z" style="fill:#263238"></path><path d="M302.26,113.69c-.09-.1-.28,0-.21.13a21.63,21.63,0,0,1,3.7,11.26c.07,4.79-1.68,9.4-4,13.51-4.56,8-11.15,14.49-17.24,21.29-.17.2.16.51.35.32,6.91-6.79,14.11-14.26,18.59-22.93C307.26,129.87,308.22,120.31,302.26,113.69Z" style="fill:#263238"></path><path d="M281.27,117.59a30.83,30.83,0,0,0-11.19-2.66c-3.68-.19-7.26,1-10.83,1.76-8,1.62-16.44,2.19-24.23-.74-.1,0-.15.11-.06.15,7,3.15,14.74,3.17,22.17,2,3.75-.62,7.53-2,11.32-2.15,4.32-.19,8.49,1.16,12.59,2.33A.34.34,0,0,0,281.27,117.59Z" style="fill:#263238"></path><path d="M284.14,95.71a60,60,0,0,0-13.93-9.9,47.35,47.35,0,0,0-15.47-5.35c-9.41-1.3-19.4,1.87-24.33,10.42a20.48,20.48,0,0,0-2.48,14.53.26.26,0,0,0,.52-.1c-1.2-9.19,3.25-18.51,11.91-22.34,9.3-4.12,19.77-1.43,28.49,2.86a87.31,87.31,0,0,1,15.25,9.93S284.17,95.74,284.14,95.71Z" style="fill:#263238"></path><path d="M276,157.88s12.66-10.47,17.65-5.61-7,21.79-14.65,22.46a7.29,7.29,0,0,1-8.37-6.39Z" style="fill:#d3766a"></path><path d="M290.09,157a.1.1,0,0,1,0,.19c-5.39.63-9.18,4.42-12.26,8.58,1.94-1.39,4.18-1.83,6.11.55.1.12-.08.29-.21.22a4.48,4.48,0,0,0-5.17.2,21.24,21.24,0,0,0-3.35,3.22c-.34.37-1.06-.08-.76-.53l.07-.11C276.09,163.15,283.28,155.83,290.09,157Z" style="fill:#263238"></path><path d="M206.63,221.32c-44.73,44.46-76.23,80.22-75,96.76,2.72,37.08,23.75,43.48,27.17,42.14C195,346,214.09,277.76,227.6,234.69,241,191.94,219.44,208.59,206.63,221.32Z" style="fill:#d3766a"></path><path d="M143.15,282.42l60.3,28.67s21.52-51.16,28.22-82.8-5.78-30-32-4.31S143.15,282.42,143.15,282.42Z" style="fill:#FFC727"></path><path d="M154.72,272.79c23.41,14.06,45.84,22.81,50.36,25.1.22.1.37-.25.14-.35-4.55-2-29.4-15.68-50.34-25.13C154.64,272.3,154.5,272.66,154.72,272.79Z" style="fill:#263238"></path><path d="M199.56,309.1a30.92,30.92,0,0,1,3.6,1.31c4.77-11.48,3.94-8.86,8.82-20.29q3.59-8.4,7.17-16.8c2.47-5.83,4.63-11.87,7.42-17.55a.14.14,0,0,1,.26.11c-1.46,5.45-3.59,10.79-5.58,16.09.46-.83.9-1.68,1.42-2.49,1.15-1.81,2.28-3.62,3.29-5.52.15-.29.63-.1.47.2-1,1.81-1.79,3.66-2.61,5.54s-1.75,3.69-2.7,5.51-1.94,3.43-3,5.11l-.38.63c-1.28,3.32-2.52,6.65-3.88,9.95-4.77,11.53-9.88,20.7-10.08,20.66a31.28,31.28,0,0,1-4.37-2.14C199.26,309.32,199.4,309.1,199.56,309.1Z" style="fill:#263238"></path><path d="M162.25,358.1C172,344.52,181.57,312.54,172,247c-1.32-9.07-67.29-4.31-66.38,5.45,1.15,12.29,8.27,59.75,9.23,63.15C123,344.31,155.64,367.31,162.25,358.1Z" style="fill:#d3766a"></path><path d="M169.07,346.74a72.51,72.51,0,0,0,5.29-14.17c.64-2.45,1.23-4.91,1.67-7.4a60.9,60.9,0,0,0,.88-7.58,149.75,149.75,0,0,0,.2-15.13,113.18,113.18,0,0,0-1.4-15c.2,5,.15,10,.06,15.06s-.29,10-.65,15c-.21,2.49-.42,5-.84,7.39s-.89,4.92-1.43,7.35C171.79,337.08,170.61,342,169.07,346.74Z" style="fill:#263238"></path><path d="M157.78,221.32C169.48,228,172,247,172,247l-51.4,24.22s-10.63-15.14-19.3-19.77c-2.52-1.35-15.41-8.93-28.39-15.49C58.21,228.51,43.71,218.82,43,217c-1.35-3.59,3.66-7.56,14.76-4.89S89.62,223.68,91,223.89a9.63,9.63,0,0,0,1.4-.07h0c.58-.23,10.47-13.07,17.8-12.85S149.68,216.71,157.78,221.32Z" style="fill:#d3766a"></path><path d="M109.05,236.84s-27.8-.58-32.48-4-35.86-19.6-37.29-23.16,3.67-7.56,14.77-4.89,31.84,11.61,33.23,11.82,25.64-3.27,28-2.92S109.05,236.84,109.05,236.84Z" style="fill:#d3766a"></path><path d="M93.34,238.73c-3-.73-5.88-1.59-8.81-2.43-1.46-.44-2.91-.9-4.36-1.39-.72-.25-1.45-.5-2.17-.77-.36-.13-.72-.29-1.09-.44a11.31,11.31,0,0,1-1.06-.57c-5.27-3-10.56-6-15.82-9.09s-10.48-6.14-15.68-9.39a19.5,19.5,0,0,1-3.6-3,8.6,8.6,0,0,1-1.38-2,3.93,3.93,0,0,1-.43-2.47,3.16,3.16,0,0,1,1.46-2,7,7,0,0,1,2.19-.89,16.84,16.84,0,0,1,4.58-.35,20.6,20.6,0,0,0-4.46.76,6.5,6.5,0,0,0-2,1,2.45,2.45,0,0,0-1,1.65c-.16,1.31.77,2.6,1.77,3.61A18.09,18.09,0,0,0,45,213.59c5.27,3,10.58,6,15.83,9s10.49,6.16,15.65,9.44a22.17,22.17,0,0,0,4,1.88c1.41.55,2.84,1.07,4.26,1.6Z" style="fill:#263238"></path><path d="M113.74,232.67s-30.47-.76-35.15-4.17-35.86-19.61-37.28-23.16,3.67-7.56,14.77-4.9,31.83,11.62,33.23,11.83,25.14-.72,27.47-.37S113.74,232.67,113.74,232.67Z" style="fill:#d3766a"></path><path d="M98.54,236.39c-3.59-1.06-7.12-2.26-10.66-3.46q-2.64-.94-5.27-2-1.31-.51-2.61-1.08a21.82,21.82,0,0,1-2.54-1.33q-9.64-5.64-19.28-11.38l-9.58-5.81-2.38-1.49a21.78,21.78,0,0,1-2.38-1.62,11.3,11.3,0,0,1-2.08-2.12,5.13,5.13,0,0,1-1.11-2.95,3,3,0,0,1,.54-1.65,3.68,3.68,0,0,1,1.22-1.08,8.79,8.79,0,0,1,2.82-1,25.89,25.89,0,0,1,5.69-.23,32.57,32.57,0,0,1,10.9,2.65,34.71,34.71,0,0,0-10.93-1.87,26.13,26.13,0,0,0-5.47.44,7.69,7.69,0,0,0-2.43.91,2,2,0,0,0-1.11,1.78,3.94,3.94,0,0,0,.95,2.15,11.13,11.13,0,0,0,1.88,1.81c1.4,1.06,3.1,1.95,4.68,2.91L59,215.79c6.4,3.85,12.8,7.68,19.13,11.67a19.49,19.49,0,0,0,2.36,1.37c.83.4,1.67.79,2.52,1.16q2.55,1.13,5.15,2.17Z" style="fill:#263238"></path><path d="M113.49,233.61s-26.3-6.84-30.65-10-26.34-12.9-27.67-16.21,3.42-7,13.75-4.56,22.59,5.46,23.89,5.66,21.8,3.09,24,3.42S113.49,233.61,113.49,233.61Z" style="fill:#d3766a"></path><path d="M105.92,234c-4.57-1.5-9.11-3.08-13.66-4.63q-3.42-1.17-6.81-2.4l-1.7-.62a15,15,0,0,1-1.69-.75c-1.09-.54-2.15-1.12-3.2-1.71-4.2-2.38-8.34-4.84-12.39-7.45-2-1.3-4-2.62-6-4-1-.69-2-1.38-3-2.11a21.75,21.75,0,0,1-2.88-2.42,3.06,3.06,0,0,1-.85-2.17,3.15,3.15,0,0,1,1.09-2.06,9.06,9.06,0,0,1,3.49-1.81,15.65,15.65,0,0,1,7.51-.34c4.74,1,9.4,2.09,14.09,3.18s9.42,2.2,14,3.35c2.33.46,4.72.85,7.08,1.26s4.74.86,7.09,1.38c-4.82-.28-9.58-.72-14.4-1.3L79.6,206.12c-4.69-1-9.39-2.11-14.07-3.05a14.32,14.32,0,0,0-6.76.27,7.54,7.54,0,0,0-2.89,1.43,1.32,1.32,0,0,0-.14,2.11,21.94,21.94,0,0,0,2.63,2.22c1,.72,1.92,1.42,2.9,2.1q2.94,2.06,6,4c4,2.6,8,5.23,12.17,7.67,1,.61,2.07,1.21,3.12,1.77a28.94,28.94,0,0,0,3.25,1.41l6.72,2.61Z" style="fill:#263238"></path></g><g id="freepik--Table--inject-150"><path d="M51.68,462.07c127.06-.61,269.58-.62,396.64,0-127.06.62-269.58.61-396.64,0Z" style="fill:#263238"></path></g><g id="freepik--speech-bubble--inject-150"><path d="M211.89,99.68a4.52,4.52,0,1,0,4.51-4.51A4.51,4.51,0,0,0,211.89,99.68Z" style="fill:#fff"></path><path d="M211.89,99.68a4.27,4.27,0,0,0,8.53,0,4.27,4.27,0,0,0-8.53,0Zm0,0c.18-6.27,9.32-6.33,9.53,0-.22,6.33-9.35,6.27-9.53,0Z" style="fill:#263238"></path><circle cx="206.35" cy="86.13" r="6.49" style="fill:#fff"></circle><path d="M199.86,86.13c-.08,5.58,7.06,8.39,10.78,4.29a6.28,6.28,0,0,0,0-8.58c-3.72-4.09-10.86-1.29-10.78,4.29Zm0,0A6.75,6.75,0,1,1,211.25,91a6.78,6.78,0,0,1-11.39-4.9Z" style="fill:#263238"></path><circle cx="163.2" cy="60.88" r="38.61" transform="translate(-10.87 54.63) rotate(-18.4)" style="fill:#fff"></circle><path d="M143,28a38.57,38.57,0,0,0-17.76,39c4.36,26.75,34.87,40.69,57.92,26.41C201,82.66,206.81,58.49,195.88,40.8,185.09,22.71,160.88,16.88,143,28Zm0,0c17.82-11.23,42.35-5.42,53.32,12.55,11.41,18,5.59,42.59-12.64,53.66-23.61,14.49-54.57.17-58.75-27.21A39,39,0,0,1,143,28Z" style="fill:#263238"></path><path d="M175.71,63v3.81a2.81,2.81,0,0,1-2.87,2.88A2.89,2.89,0,0,1,170,66.78v-6.1c0-.06.06-.06.06-.12s-.06-.05-.06-.11a3,3,0,0,1,2.88-2.88,6.57,6.57,0,1,0,0-13.14,6.46,6.46,0,0,0-5.63,3.23,2.89,2.89,0,0,1-4,1.05,2.86,2.86,0,0,1-1-3.93A12.33,12.33,0,1,1,175.71,63Zm0,12.85v1.05a2.81,2.81,0,0,1-2.87,2.88A2.89,2.89,0,0,1,170,76.87V75.82a2.92,2.92,0,0,1,2.88-2.88A2.84,2.84,0,0,1,175.71,75.82Z" style="fill:#FFC727"></path><path d="M150.68,58.8V55a2.8,2.8,0,0,1,2.88-2.87A2.88,2.88,0,0,1,156.43,55v6.1c0,.06-.06.06-.06.12s.06.06.06.12a3,3,0,0,1-2.87,2.87,6.57,6.57,0,1,0,0,13.14,6.5,6.5,0,0,0,5.63-3.22,2.9,2.9,0,0,1,4-1.06,2.85,2.85,0,0,1,1,3.93A12.33,12.33,0,1,1,150.68,58.8Zm0-12.85V44.89A2.8,2.8,0,0,1,153.56,42a2.88,2.88,0,0,1,2.87,2.87V46a2.92,2.92,0,0,1-2.87,2.87A2.84,2.84,0,0,1,150.68,46Z" style="fill:#FFC727"></path></g><g id="freepik--UX--inject-150"><rect x="321.71" y="117.5" width="8.68" height="40.27" style="fill:#37474f"></rect><path d="M315.48,111.28h8.68a6.25,6.25,0,0,1,6.24,6.22h-8.69A6.24,6.24,0,0,0,315.48,111.28Z" style="fill:#37474f"></path><path d="M321.71,157.77h8.69a20,20,0,0,0,19.82,20.13h-8.68A20,20,0,0,1,321.71,157.77Z" style="fill:#37474f"></path><path d="M373.74,157.77h8.68c0,18-14.37,32.7-32.2,32.7h-8.68C359.37,190.47,373.74,175.75,373.74,157.77Z" style="fill:#37474f"></path><rect x="373.74" y="117.5" width="8.68" height="40.27" style="fill:#37474f"></rect><path d="M367.61,111.28h8.68a6.08,6.08,0,0,1,6.13,6.22h-8.68A6.08,6.08,0,0,0,367.61,111.28Z" style="fill:#37474f"></path><g style="opacity:0.1"><polygon points="321.71 117.5 330.4 117.5 330.4 157.77 326.06 159.1 321.71 157.77 321.71 117.5" style="fill:#37474f"></polygon><path d="M315.48,111.28h8.68a6.25,6.25,0,0,1,6.24,6.22h-8.69A6.24,6.24,0,0,0,315.48,111.28Z" style="fill:#37474f"></path><path d="M321.71,157.77h8.69a20,20,0,0,0,19.82,20.13h-8.68A20,20,0,0,1,321.71,157.77Z" style="fill:#37474f"></path><path d="M373.74,157.77h8.68c0,18-14.37,32.7-32.2,32.7h-8.68C359.37,190.47,373.74,175.75,373.74,157.77Z" style="fill:#37474f"></path><polygon points="373.74 117.5 382.42 117.5 382.42 157.77 378.08 159.49 373.74 157.77 373.74 117.5" style="fill:#37474f"></polygon><path d="M367.61,111.28h8.68a6.08,6.08,0,0,1,6.13,6.22h-8.68A6.08,6.08,0,0,0,367.61,111.28Z" style="fill:#37474f"></path></g><path d="M367.61,111.28a6.08,6.08,0,0,1,6.13,6.22v40.27c0,18-14.37,32.7-32.2,32.7a32.4,32.4,0,0,1-32.2-32.7V117.5a6.09,6.09,0,0,1,6.14-6.22,6.24,6.24,0,0,1,6.23,6.22v40.27a19.83,19.83,0,1,0,39.66,0V117.5A6.18,6.18,0,0,1,367.61,111.28Z" style="fill:#37474f"></path><path d="M396.21,187.86h8.68a6.35,6.35,0,0,1-4.91,2.61H391.3A6.35,6.35,0,0,0,396.21,187.86Z" style="fill:#37474f"></path><path d="M391.39,112.12h8.68a5.7,5.7,0,0,1,4.82,2.66h-8.68A5.71,5.71,0,0,0,391.39,112.12Z" style="fill:#37474f"></path><polygon points="415.04 161.73 423.72 161.73 404.89 187.86 396.21 187.86 415.04 161.73" style="fill:#37474f"></polygon><polygon points="396.21 114.78 404.89 114.78 423.72 140.8 415.04 140.8 396.21 114.78" style="fill:#37474f"></polygon><path d="M442.33,189.22H451a6.21,6.21,0,0,1-3.56,1.25h-8.69A6.22,6.22,0,0,0,442.33,189.22Z" style="fill:#37474f"></path><path d="M438.66,112.12h8.68a6,6,0,0,1,3.67,1.3h-8.68A6,6,0,0,0,438.66,112.12Z" style="fill:#37474f"></path><polygon points="422.5 151.21 431.18 151.21 452.35 180.62 443.66 180.62 422.5 151.21" style="fill:#37474f"></polygon><polygon points="443.66 122.02 452.35 122.02 431.18 151.21 422.5 151.21 443.66 122.02" style="fill:#37474f"></polygon><path d="M443.66,180.62h8.69a6.21,6.21,0,0,1-1.34,8.6h-8.68A6.2,6.2,0,0,0,443.66,180.62Z" style="fill:#37474f"></path><path d="M442.33,113.42H451a6.19,6.19,0,0,1,1.34,8.6h-8.69A6.18,6.18,0,0,0,442.33,113.42Z" style="fill:#37474f"></path><g style="opacity:0.1"><path d="M396.21,187.86h8.68a6.35,6.35,0,0,1-4.91,2.61H391.3A6.35,6.35,0,0,0,396.21,187.86Z" style="fill:#37474f"></path><path d="M391.39,112.12h8.68a5.7,5.7,0,0,1,4.82,2.66h-8.68A5.71,5.71,0,0,0,391.39,112.12Z" style="fill:#37474f"></path><polygon points="415.04 161.73 423.72 161.73 404.89 187.86 396.21 187.86 415.04 161.73" style="fill:#37474f"></polygon><polygon points="396.21 114.78 404.89 114.78 423.72 140.8 415.04 140.8 396.21 114.78" style="fill:#37474f"></polygon><path d="M442.33,189.22H451a6.21,6.21,0,0,1-3.56,1.25h-8.69A6.22,6.22,0,0,0,442.33,189.22Z" style="fill:#37474f"></path><path d="M438.66,112.12h8.68a6,6,0,0,1,3.67,1.3h-8.68A6,6,0,0,0,438.66,112.12Z" style="fill:#37474f"></path><polygon points="422.5 151.21 431.18 151.21 452.35 180.62 443.66 180.62 422.5 151.21" style="fill:#37474f"></polygon><polygon points="443.66 122.02 448.56 120.16 452.35 122.02 431.18 151.21 427.53 152.69 422.5 151.21 443.66 122.02" style="fill:#37474f"></polygon><path d="M443.66,180.62h8.69a6.21,6.21,0,0,1-1.34,8.6h-8.68A6.2,6.2,0,0,0,443.66,180.62Z" style="fill:#37474f"></path><path d="M442.33,113.42H451a6.19,6.19,0,0,1,1.34,8.6h-8.69A6.18,6.18,0,0,0,442.33,113.42Z" style="fill:#37474f"></path></g><path d="M438.66,112.12a6,6,0,0,1,3.67,1.3,6.18,6.18,0,0,1,1.33,8.6L422.5,151.21l21.16,29.41a6.24,6.24,0,0,1-4.9,9.85,6.35,6.35,0,0,1-5-2.61L415,161.73l-18.83,26.13a6.35,6.35,0,0,1-4.91,2.61,5.71,5.71,0,0,1-3.56-1.25,6.23,6.23,0,0,1-1.45-8.6l21.17-29.41L386.29,122a6.21,6.21,0,0,1,1.45-8.6,5.81,5.81,0,0,1,3.65-1.3,5.71,5.71,0,0,1,4.82,2.66l18.83,26,18.72-26A6,6,0,0,1,438.66,112.12Z" style="fill:#37474f"></path><rect x="321.71" y="117.5" width="8.68" height="40.27" style="fill:#455a64"></rect><path d="M315.48,111.28h8.68a6.25,6.25,0,0,1,6.24,6.22h-8.69A6.24,6.24,0,0,0,315.48,111.28Z" style="fill:#455a64"></path><path d="M321.71,157.77h8.69a20,20,0,0,0,19.82,20.13h-8.68A20,20,0,0,1,321.71,157.77Z" style="fill:#455a64"></path><path d="M373.74,157.77h8.68c0,18-14.37,32.7-32.2,32.7h-8.68C359.37,190.47,373.74,175.75,373.74,157.77Z" style="fill:#455a64"></path><rect x="373.74" y="117.5" width="8.68" height="40.27" style="fill:#455a64"></rect><path d="M367.61,111.28h8.68a6.08,6.08,0,0,1,6.13,6.22h-8.68A6.08,6.08,0,0,0,367.61,111.28Z" style="fill:#455a64"></path><g style="opacity:0.1"><polygon points="321.71 117.5 330.4 117.5 330.4 157.77 326.06 159.1 321.71 157.77 321.71 117.5"></polygon><path d="M315.48,111.28h8.68a6.25,6.25,0,0,1,6.24,6.22h-8.69A6.24,6.24,0,0,0,315.48,111.28Z"></path><path d="M321.71,157.77h8.69a20,20,0,0,0,19.82,20.13h-8.68A20,20,0,0,1,321.71,157.77Z"></path><path d="M373.74,157.77h8.68c0,18-14.37,32.7-32.2,32.7h-8.68C359.37,190.47,373.74,175.75,373.74,157.77Z"></path><polygon points="373.74 117.5 382.42 117.5 382.42 157.77 378.08 159.49 373.74 157.77 373.74 117.5"></polygon><path d="M367.61,111.28h8.68a6.08,6.08,0,0,1,6.13,6.22h-8.68A6.08,6.08,0,0,0,367.61,111.28Z"></path></g><path d="M367.61,111.28a6.08,6.08,0,0,1,6.13,6.22v40.27c0,18-14.37,32.7-32.2,32.7a32.4,32.4,0,0,1-32.2-32.7V117.5a6.09,6.09,0,0,1,6.14-6.22,6.24,6.24,0,0,1,6.23,6.22v40.27a19.83,19.83,0,1,0,39.66,0V117.5A6.18,6.18,0,0,1,367.61,111.28Z" style="fill:#455a64"></path><path d="M396.21,187.86h8.68a6.35,6.35,0,0,1-4.91,2.61H391.3A6.35,6.35,0,0,0,396.21,187.86Z" style="fill:#455a64"></path><path d="M391.39,112.12h8.68a5.7,5.7,0,0,1,4.82,2.66h-8.68A5.71,5.71,0,0,0,391.39,112.12Z" style="fill:#455a64"></path><polygon points="415.04 161.73 423.72 161.73 404.89 187.86 396.21 187.86 415.04 161.73" style="fill:#455a64"></polygon><polygon points="396.21 114.78 404.89 114.78 423.72 140.8 415.04 140.8 396.21 114.78" style="fill:#455a64"></polygon><path d="M442.33,189.22H451a6.21,6.21,0,0,1-3.56,1.25h-8.69A6.22,6.22,0,0,0,442.33,189.22Z" style="fill:#455a64"></path><path d="M438.66,112.12h8.68a6,6,0,0,1,3.67,1.3h-8.68A6,6,0,0,0,438.66,112.12Z" style="fill:#455a64"></path><polygon points="422.5 151.21 431.18 151.21 452.35 180.62 443.66 180.62 422.5 151.21" style="fill:#455a64"></polygon><polygon points="443.66 122.02 452.35 122.02 431.18 151.21 422.5 151.21 443.66 122.02" style="fill:#455a64"></polygon><path d="M443.66,180.62h8.69a6.21,6.21,0,0,1-1.34,8.6h-8.68A6.2,6.2,0,0,0,443.66,180.62Z" style="fill:#455a64"></path><path d="M442.33,113.42H451a6.19,6.19,0,0,1,1.34,8.6h-8.69A6.18,6.18,0,0,0,442.33,113.42Z" style="fill:#455a64"></path><g style="opacity:0.1"><path d="M396.21,187.86h8.68a6.35,6.35,0,0,1-4.91,2.61H391.3A6.35,6.35,0,0,0,396.21,187.86Z"></path><path d="M391.39,112.12h8.68a5.7,5.7,0,0,1,4.82,2.66h-8.68A5.71,5.71,0,0,0,391.39,112.12Z"></path><polygon points="415.04 161.73 423.72 161.73 404.89 187.86 396.21 187.86 415.04 161.73"></polygon><polygon points="396.21 114.78 404.89 114.78 423.72 140.8 415.04 140.8 396.21 114.78"></polygon><path d="M442.33,189.22H451a6.21,6.21,0,0,1-3.56,1.25h-8.69A6.22,6.22,0,0,0,442.33,189.22Z"></path><path d="M438.66,112.12h8.68a6,6,0,0,1,3.67,1.3h-8.68A6,6,0,0,0,438.66,112.12Z"></path><polygon points="422.5 151.21 431.18 151.21 452.35 180.62 443.66 180.62 422.5 151.21"></polygon><polygon points="443.66 122.02 448.56 120.16 452.35 122.02 431.18 151.21 427.53 152.69 422.5 151.21 443.66 122.02"></polygon><path d="M443.66,180.62h8.69a6.21,6.21,0,0,1-1.34,8.6h-8.68A6.2,6.2,0,0,0,443.66,180.62Z"></path><path d="M442.33,113.42H451a6.19,6.19,0,0,1,1.34,8.6h-8.69A6.18,6.18,0,0,0,442.33,113.42Z"></path></g><path d="M438.66,112.12a6,6,0,0,1,3.67,1.3,6.18,6.18,0,0,1,1.33,8.6L422.5,151.21l21.16,29.41a6.24,6.24,0,0,1-4.9,9.85,6.35,6.35,0,0,1-5-2.61L415,161.73l-18.83,26.13a6.35,6.35,0,0,1-4.91,2.61,5.71,5.71,0,0,1-3.56-1.25,6.23,6.23,0,0,1-1.45-8.6l21.17-29.41L386.29,122a6.21,6.21,0,0,1,1.45-8.6,5.81,5.81,0,0,1,3.65-1.3,5.71,5.71,0,0,1,4.82,2.66l18.83,26,18.72-26A6,6,0,0,1,438.66,112.12Z" style="fill:#455a64"></path></g><g id="freepik--UI--inject-150"><path d="M154.78,111.28H146.1A6.09,6.09,0,0,0,140,117.5v66.74a6.1,6.1,0,0,0,6.13,6.23h8.68a6.26,6.26,0,0,0,6.24-6.23V117.5A6.25,6.25,0,0,0,154.78,111.28Z" style="fill:#FFC727"></path><path d="M121.12,111.28h-8.68a6.17,6.17,0,0,0-6.23,6.22v40.27a20,20,0,0,1-15.48,19.64,20.12,20.12,0,0,1-15.5-19.64V117.5A6.25,6.25,0,0,0,69,111.28H60.31a6.09,6.09,0,0,0-6.14,6.22v40.27c0,18,14.27,32.7,32.2,32.7h8.69c17.82,0,32.2-14.72,32.2-32.7V117.5A6.09,6.09,0,0,0,121.12,111.28Z" style="fill:#FFC727"></path><path d="M146.1,111.28a6.25,6.25,0,0,1,6.24,6.22v66.74a6.26,6.26,0,0,1-6.24,6.23,6.1,6.1,0,0,1-6.13-6.23V117.5A6.09,6.09,0,0,1,146.1,111.28Z" style="fill:#FFC727"></path><path d="M152.34,184.24H161a6.26,6.26,0,0,1-6.24,6.23H146.1A6.26,6.26,0,0,0,152.34,184.24Z" style="fill:#FFC727"></path><rect x="152.34" y="117.5" width="8.68" height="66.74" style="fill:#FFC727"></rect><path d="M146.1,111.28h8.68A6.25,6.25,0,0,1,161,117.5h-8.68A6.25,6.25,0,0,0,146.1,111.28Z" style="fill:#FFC727"></path><g style="opacity:0.1"><path d="M152.34,184.24l4.34-.91,4.34.91a6.26,6.26,0,0,1-6.24,6.23H146.1A6.26,6.26,0,0,0,152.34,184.24Z"></path><rect x="152.34" y="117.5" width="8.68" height="66.74"></rect><path d="M146.1,111.28h8.68A6.25,6.25,0,0,1,161,117.5l-4.2,1.23-4.48-1.23A6.25,6.25,0,0,0,146.1,111.28Z"></path></g><rect x="66.55" y="117.5" width="8.68" height="40.27" style="fill:#FFC727"></rect><path d="M60.31,111.28H69a6.25,6.25,0,0,1,6.24,6.22H66.55A6.25,6.25,0,0,0,60.31,111.28Z" style="fill:#FFC727"></path><path d="M66.55,157.77h8.68A20,20,0,0,0,95.06,177.9H86.37A20,20,0,0,1,66.55,157.77Z" style="fill:#FFC727"></path><path d="M118.57,157.77h8.69c0,18-14.38,32.7-32.2,32.7H86.37C104.2,190.47,118.57,175.75,118.57,157.77Z" style="fill:#FFC727"></path><rect x="118.57" y="117.5" width="8.68" height="40.27" style="fill:#FFC727"></rect><path d="M112.44,111.28h8.68a6.09,6.09,0,0,1,6.14,6.22h-8.69A6.08,6.08,0,0,0,112.44,111.28Z" style="fill:#FFC727"></path><g style="opacity:0.1"><rect x="66.55" y="117.5" width="8.68" height="40.27"></rect><path d="M60.31,111.28H69a6.25,6.25,0,0,1,6.24,6.22l-5,2.08-3.67-2.08A6.25,6.25,0,0,0,60.31,111.28Z"></path><path d="M66.55,157.77l4.9-2.29,3.78,2.29A20,20,0,0,0,95.06,177.9H86.37A20,20,0,0,1,66.55,157.77Z"></path><path d="M118.57,157.77l4.35-1.8,4.34,1.8c0,18-14.38,32.7-32.2,32.7H86.37C104.2,190.47,118.57,175.75,118.57,157.77Z"></path><rect x="118.57" y="117.5" width="8.68" height="40.27"></rect><path d="M112.44,111.28h8.68a6.09,6.09,0,0,1,6.14,6.22l-4.34,2.08-4.35-2.08A6.08,6.08,0,0,0,112.44,111.28Z"></path></g><path d="M112.44,111.28a6.08,6.08,0,0,1,6.13,6.22v40.27c0,18-14.37,32.7-32.2,32.7s-32.2-14.72-32.2-32.7V117.5a6.09,6.09,0,0,1,6.14-6.22,6.25,6.25,0,0,1,6.24,6.22v40.27a19.83,19.83,0,1,0,39.66,0V117.5A6.17,6.17,0,0,1,112.44,111.28Z" style="fill:#FFC727"></path></g></svg>
